<svg width="224" height="224" viewBox="0 0 224 224" fill="none" xmlns="http://www.w3.org/2000/svg">
<g clip-path="url(#clip0_11_3)">
<rect x="3" y="3" width="218" height="218" rx="24" fill="url(#paint0_radial_11_3)" stroke="#F56AAF" stroke-width="6"/>
<path d="M123.959 71.7635C123.959 76.218 129.345 78.4488 132.495 75.299L159.198 48.597L175.843 65.2418L149.58 91.505C146.43 94.6548 148.661 100.041 153.116 100.041H190V123.581H152.858C148.404 123.581 146.173 128.967 149.323 132.117L175.404 158.198L158.758 174.843L132.495 148.58C129.345 145.43 123.959 147.661 123.959 152.116V189H100.419V152.737C100.419 148.283 95.0332 146.052 91.8834 149.202L66.2418 174.843L49.5961 158.198L75.6769 132.117C78.8268 128.967 76.5959 123.581 72.1413 123.581L35 123.582V100.041L71.8842 100.041C76.3387 100.041 78.5695 94.6549 75.4196 91.5052L49.1565 65.2428L65.8023 48.597L91.8834 74.6774C95.0333 77.8272 100.419 75.5963 100.419 71.1418V34H123.959V71.7635Z" fill="#1E1E1E"/>
</g>
<defs>
<radialGradient id="paint0_radial_11_3" cx="0" cy="0" r="1" gradientUnits="userSpaceOnUse" gradientTransform="translate(40.5 33) rotate(53.4089) scale(287.703 285.629)">
<stop stop-color="#F56AAF"/>
<stop offset="1" stop-color="#8F3E66"/>
</radialGradient>
<clipPath id="clip0_11_3">
<rect width="224" height="224" fill="white"/>
</clipPath>
</defs>
</svg>
