<svg xmlns="http://www.w3.org/2000/svg" viewBox="-8 4 147 147" fill="none">
<rect x="-8" y="4" width="147" height="147" rx="24" fill="#0f0f0e"/>
<path d="M75.1851 42.0472C75.1851 46.5017 80.5708 48.7325 83.7206 45.5828L104.967 24.3368L119.035 38.4044L98.1605 59.2794C95.0107 62.4292 97.2415 67.8149 101.696 67.8149H131V87.7105H101.478C97.0239 87.7105 94.7931 93.0962 97.9429 96.246L118.664 116.967L104.596 131.035L83.7206 110.16C80.5708 107.011 75.1851 109.241 75.1851 113.696V143H55.2895V114.221C55.2895 109.767 49.9038 107.536 46.754 110.686L26.4044 131.035L12.336 116.967L33.0569 96.2462C36.2068 93.0964 33.9758 87.7106 29.5213 87.7107L0 87.7113V67.8157L29.3041 67.8151C33.7586 67.815 35.9893 62.4293 32.8395 59.2795L11.9646 38.4052L26.0329 24.3368L46.754 45.0574C49.9039 48.2071 55.2895 45.9763 55.2895 41.5218V12H75.1851V42.0472Z" fill="#F56AAF"/>
</svg>
