<svg width="883" height="162" viewBox="0 0 883 162" fill="none" xmlns="http://www.w3.org/2000/svg">
<g clip-path="url(#clip0_11_6)">
<path d="M195.2 131.391V44.3906H164.6V26.3906H245.6V44.3906H215V131.391H195.2ZM257.926 131.391V56.9906H276.826V131.391H257.926ZM267.376 48.2906C263.976 48.2906 261.076 47.1906 258.676 44.9906C256.376 42.7906 255.226 39.8906 255.226 36.2906C255.226 32.6906 256.376 29.7906 258.676 27.5906C261.076 25.3906 263.976 24.2906 267.376 24.2906C270.876 24.2906 273.776 25.3906 276.076 27.5906C278.376 29.7906 279.526 32.6906 279.526 36.2906C279.526 39.8906 278.376 42.7906 276.076 44.9906C273.776 47.1906 270.876 48.2906 267.376 48.2906ZM294.17 94.4906V92.0906C294.17 84.2906 295.72 77.6406 298.82 72.1406C301.92 66.5406 306.02 62.2906 311.12 59.3906C316.32 56.3906 321.97 54.8906 328.07 54.8906C334.87 54.8906 340.02 56.0906 343.52 58.4906C347.02 60.8906 349.57 63.3906 351.17 65.9906H353.87V56.9906H372.47V144.591C372.47 149.691 370.97 153.741 367.97 156.741C364.97 159.841 360.97 161.391 355.97 161.391H306.17V144.891H349.37C352.17 144.891 353.57 143.391 353.57 140.391V121.041H350.87C349.87 122.641 348.47 124.291 346.67 125.991C344.87 127.591 342.47 128.941 339.47 130.041C336.47 131.141 332.67 131.691 328.07 131.691C321.97 131.691 316.32 130.241 311.12 127.341C306.02 124.341 301.92 120.091 298.82 114.591C295.72 108.991 294.17 102.291 294.17 94.4906ZM333.47 115.191C339.27 115.191 344.12 113.341 348.02 109.641C351.92 105.941 353.87 100.741 353.87 94.0406V92.5406C353.87 85.7406 351.92 80.5406 348.02 76.9406C344.22 73.2406 339.37 71.3906 333.47 71.3906C327.67 71.3906 322.82 73.2406 318.92 76.9406C315.02 80.5406 313.07 85.7406 313.07 92.5406V94.0406C313.07 100.741 315.02 105.941 318.92 109.641C322.82 113.341 327.67 115.191 333.47 115.191ZM393.424 131.391V26.3906H412.324V66.1406H415.024C415.824 64.5406 417.074 62.9406 418.774 61.3406C420.474 59.7406 422.724 58.4406 425.524 57.4406C428.424 56.3406 432.074 55.7906 436.474 55.7906C442.274 55.7906 447.324 57.1406 451.624 59.8406C456.024 62.4406 459.424 66.0906 461.824 70.7906C464.224 75.3906 465.424 80.7906 465.424 86.9906V131.391H446.524V88.4906C446.524 82.8906 445.124 78.6906 442.324 75.8906C439.624 73.0906 435.724 71.6906 430.624 71.6906C424.824 71.6906 420.324 73.6406 417.124 77.5406C413.924 81.3406 412.324 86.6906 412.324 93.5906V131.391H393.424ZM512.305 131.391C507.405 131.391 503.405 129.891 500.305 126.891C497.305 123.791 495.805 119.691 495.805 114.591V72.5906H477.205V56.9906H495.805V33.8906H514.705V56.9906H535.105V72.5906H514.705V111.291C514.705 114.291 516.105 115.791 518.905 115.791H533.305V131.391H512.305ZM551.613 131.391V26.3906H594.813C601.413 26.3906 607.213 27.7406 612.213 30.4406C617.313 33.0406 621.263 36.7406 624.063 41.5406C626.963 46.3406 628.413 52.0406 628.413 58.6406V60.7406C628.413 67.2406 626.913 72.9406 623.913 77.8406C621.013 82.6406 617.013 86.3906 611.913 89.0906C606.913 91.6906 601.213 92.9906 594.813 92.9906H571.413V131.391H551.613ZM571.413 74.9906H592.863C597.563 74.9906 601.363 73.6906 604.263 71.0906C607.163 68.4906 608.613 64.9406 608.613 60.4406V58.9406C608.613 54.4406 607.163 50.8906 604.263 48.2906C601.363 45.6906 597.563 44.3906 592.863 44.3906H571.413V74.9906ZM671.09 132.591C665.29 132.591 660.19 131.291 655.79 128.691C651.49 125.991 648.14 122.291 645.74 117.591C643.34 112.891 642.14 107.491 642.14 101.391V56.9906H661.04V99.8906C661.04 105.491 662.39 109.691 665.09 112.491C667.89 115.291 671.84 116.691 676.94 116.691C682.74 116.691 687.24 114.791 690.44 110.991C693.64 107.091 695.24 101.691 695.24 94.7906V56.9906H714.14V131.391H695.54V121.641H692.84C691.64 124.141 689.39 126.591 686.09 128.991C682.79 131.391 677.79 132.591 671.09 132.591ZM735.172 131.391V56.9906H753.772V66.7406H756.472C757.672 64.1406 759.922 61.6906 763.222 59.3906C766.522 56.9906 771.522 55.7906 778.222 55.7906C784.022 55.7906 789.072 57.1406 793.372 59.8406C797.772 62.4406 801.172 66.0906 803.572 70.7906C805.972 75.3906 807.172 80.7906 807.172 86.9906V131.391H788.272V88.4906C788.272 82.8906 786.872 78.6906 784.072 75.8906C781.372 73.0906 777.472 71.6906 772.372 71.6906C766.572 71.6906 762.072 73.6406 758.872 77.5406C755.672 81.3406 754.072 86.6906 754.072 93.5906V131.391H735.172ZM854.053 131.391C849.153 131.391 845.153 129.891 842.053 126.891C839.053 123.791 837.553 119.691 837.553 114.591V72.5906H818.953V56.9906H837.553V33.8906H856.453V56.9906H876.853V72.5906H856.453V111.291C856.453 114.291 857.853 115.791 860.653 115.791H875.053V131.391H854.053Z" fill="white"/>
<path d="M75.1851 42.0472C75.1851 46.5017 80.5708 48.7325 83.7206 45.5828L104.967 24.3368L119.035 38.4044L98.1605 59.2794C95.0107 62.4292 97.2415 67.8149 101.696 67.8149H131V87.7105H101.478C97.0239 87.7105 94.7931 93.0962 97.9429 96.246L118.664 116.967L104.596 131.035L83.7206 110.16C80.5708 107.011 75.1851 109.241 75.1851 113.696V143H55.2895V114.221C55.2895 109.767 49.9038 107.536 46.754 110.686L26.4044 131.035L12.336 116.967L33.0569 96.2462C36.2068 93.0964 33.9758 87.7106 29.5213 87.7107L0 87.7113V67.8157L29.3041 67.8151C33.7586 67.815 35.9893 62.4293 32.8395 59.2795L11.9646 38.4052L26.0329 24.3368L46.754 45.0574C49.9039 48.2071 55.2895 45.9763 55.2895 41.5218V12H75.1851V42.0472Z" fill="#F56AAF"/>
</g>
<defs>
<clipPath id="clip0_11_6">
<rect width="883" height="162" fill="white"/>
</clipPath>
</defs>
</svg>
